<svg width="25" height="21" viewBox="0 0 25 21" fill="none" xmlns="http://www.w3.org/2000/svg">
<path d="M6.3733 1.65889C5.2412 2.60879 5.2412 4.14589 6.39427 5.09578L8.91004 7.16827C11.2791 9.11987 11.2791 12.2977 8.91004 14.2493L4.29779 10.4497C3.11327 9.47392 2.51578 8.18725 2.51578 6.90921C2.51578 5.63117 3.11327 4.3445 4.29779 3.3687L6.34185 1.6848C6.35234 1.67616 6.36282 1.66753 6.3733 1.65889Z" fill="#061032" stroke="white" stroke-width="2" stroke-miterlimit="10"/>
<path d="M8.38574 6.7356L6.39409 5.09488C5.24102 4.14498 5.23054 2.61652 6.37312 1.65799C7.50522 0.74264 9.3082 0.75991 10.4298 1.6839C10.9959 2.15021 11.2789 2.76332 11.2789 3.3678C11.2789 3.97228 10.9959 4.58539 10.4298 5.0517L9.95811 5.44029" fill="#061032"/>
<path d="M8.38575 6.7356L6.39409 5.09488C5.24102 4.14498 5.23054 2.61652 6.37312 1.65799C7.50522 0.74264 9.3082 0.75991 10.4298 1.6839C10.9959 2.15021 11.2789 2.76332 11.2789 3.3678C11.2789 3.97228 10.9959 4.58539 10.4298 5.0517L9.95811 5.44029" stroke="white" stroke-width="2" stroke-miterlimit="10"/>
<path d="M18.2704 18.6268C19.4025 17.6769 19.4025 16.1398 18.2494 15.1899L15.7337 13.1174C13.3646 11.1658 13.3646 7.98803 15.7337 6.03643L20.3459 9.836C21.5304 10.8118 22.1279 12.0985 22.1279 13.3765C22.1279 14.6545 21.5304 15.9412 20.3459 16.917L18.3018 18.6009C18.2809 18.6182 18.2704 18.6268 18.2704 18.6268Z" fill="#061032" stroke="white" stroke-width="2" stroke-miterlimit="10"/>
<path d="M16.2468 13.5578L18.2385 15.1986C19.3915 16.1484 19.402 17.6769 18.2595 18.6354C17.1274 19.5508 15.3244 19.5335 14.2028 18.6095C13.6367 18.1432 13.3537 17.5301 13.3537 16.9256C13.3537 16.3212 13.6367 15.708 14.2028 15.2417L14.6849 14.8445" fill="#061032"/>
<path d="M16.2468 13.5578L18.2385 15.1986C19.3916 16.1484 19.402 17.6769 18.2595 18.6354C17.1274 19.5508 15.3244 19.5335 14.2028 18.6095C13.6367 18.1432 13.3537 17.5301 13.3537 16.9256C13.3537 16.3212 13.6367 15.708 14.2028 15.2417L14.6849 14.8445" stroke="white" stroke-width="2" stroke-miterlimit="10"/>
</svg>
