<svg width="30" height="31" viewBox="0 0 30 31" fill="none" xmlns="http://www.w3.org/2000/svg">
<path fill-rule="evenodd" clip-rule="evenodd" d="M23.75 26.9762H7.5C5.08375 26.9762 3.125 25.0174 3.125 22.6012V6.28018C3.125 4.94574 4.4448 4.09974 5.60612 4.50294C5.77203 4.56053 5.9347 4.64363 6.08982 4.75443L6.30863 4.91072C7.39366 5.68574 8.86114 5.68231 9.94923 4.90511C11.4704 3.81856 13.5296 3.81856 15.0508 4.90511C16.1389 5.68231 17.6063 5.68574 18.6914 4.91072L18.9102 4.75443C20.1512 3.868 21.875 4.75511 21.875 6.28018V15.7262H26.25C26.7678 15.7262 27.1875 16.1459 27.1875 16.6637V23.5387C27.1875 25.4372 25.6485 26.9762 23.75 26.9762ZM22.1875 17.6012V23.5387C22.1875 24.4016 22.8871 25.1012 23.75 25.1012C24.6129 25.1012 25.3125 24.4016 25.3125 23.5387V17.6012H22.1875ZM16.875 12.2887C16.875 11.7709 16.4553 11.3512 15.9375 11.3512H8.4375C7.91973 11.3512 7.5 11.7709 7.5 12.2887C7.5 12.8065 7.91973 13.2262 8.4375 13.2262H15.9375C16.4553 13.2262 16.875 12.8065 16.875 12.2887ZM15.625 16.0387C15.625 15.5209 15.2053 15.1012 14.6875 15.1012H8.4375C7.91973 15.1012 7.5 15.5209 7.5 16.0387C7.5 16.5565 7.91973 16.9762 8.4375 16.9762H14.6875C15.2053 16.9762 15.625 16.5565 15.625 16.0387ZM15.9375 18.8512C16.4553 18.8512 16.875 19.2709 16.875 19.7887C16.875 20.3065 16.4553 20.7262 15.9375 20.7262H8.4375C7.91973 20.7262 7.5 20.3065 7.5 19.7887C7.5 19.2709 7.91973 18.8512 8.4375 18.8512H15.9375Z" fill="#555555"/>
</svg>
