<svg width="30" height="31" viewBox="0 0 30 31" fill="none" xmlns="http://www.w3.org/2000/svg">
<path fill-rule="evenodd" clip-rule="evenodd" d="M15.4442 4.50525C15.1398 4.41889 14.8188 4.41897 14.5144 4.50559C13.8664 4.69002 13.2121 4.86084 12.5557 5.03224C9.62609 5.79714 6.40046 6.63935 3.64116 8.89101L2.34018 9.95264C1.30276 10.7992 1.3033 12.4571 2.34163 13.3028L3.62156 14.3453C4.56713 15.1155 5.5526 15.7179 6.5625 16.2092V21.9955C6.5625 23.4121 7.43153 24.6836 8.75138 25.1982L13.7514 27.1475C14.5544 27.4605 15.4456 27.4605 16.2486 27.1475L21.2486 25.1982C22.5685 24.6836 23.4375 23.4121 23.4375 21.9955V16.2196C24.4407 15.7309 25.4196 15.1315 26.3588 14.3651L26.5625 14.1989V20.3781C26.5625 20.8958 26.9822 21.3156 27.5 21.3156C28.0178 21.3156 28.4375 20.8958 28.4375 20.3781V11.6281C28.4373 11.002 28.1775 10.3761 27.6584 9.95326L26.3784 8.91077C23.5991 6.647 20.2379 5.77037 17.399 5.02996C16.744 4.85912 16.0911 4.68884 15.4442 4.50525ZM10.3739 16.3933C9.89913 16.1868 9.34681 16.4043 9.1403 16.8791C8.9338 17.3539 9.15129 17.9062 9.62609 18.1128C11.2234 18.8075 12.8769 19.3759 14.5713 19.8108C14.8666 19.8866 15.1763 19.8865 15.4717 19.8105C17.1616 19.3755 18.8101 18.8071 20.4023 18.1123C20.8769 17.9052 21.0937 17.3527 20.8866 16.8781C20.6796 16.4035 20.127 16.1867 19.6524 16.3938C18.1567 17.0465 16.6082 17.5809 15.0209 17.9904C13.4287 17.5808 11.8751 17.0462 10.3739 16.3933Z" fill="#555555"/>
</svg>
