<svg width="20" height="20" viewBox="0 0 20 20" fill="none" xmlns="http://www.w3.org/2000/svg">
<path d="M13.0415 17.8417C12.6832 17.8417 12.3249 17.7667 12.0332 17.625L7.6582 15.4333C7.4082 15.3083 6.91654 15.3167 6.67487 15.4583L4.7082 16.5833C3.8582 17.0667 2.9832 17.1333 2.32487 16.7417C1.6582 16.3583 1.2832 15.575 1.2832 14.5917V6.49167C1.2832 5.73334 1.7832 4.87501 2.44154 4.50001L6.04987 2.43334C6.6582 2.08334 7.5832 2.05834 8.2082 2.37501L12.5832 4.56667C12.8332 4.69167 13.3165 4.67501 13.5665 4.54167L15.5249 3.42501C16.3749 2.94167 17.2499 2.87501 17.9082 3.26667C18.5749 3.65001 18.9499 4.43334 18.9499 5.41667V13.525C18.9499 14.2833 18.4499 15.1417 17.7915 15.5167L14.1832 17.5833C13.8665 17.75 13.4499 17.8417 13.0415 17.8417ZM7.19987 14.1C7.5582 14.1 7.91654 14.175 8.2082 14.3167L12.5832 16.5083C12.8332 16.6333 13.3165 16.6167 13.5665 16.4833L17.1749 14.4167C17.4415 14.2667 17.6999 13.8167 17.6999 13.5167V5.40834C17.6999 4.88334 17.5499 4.49167 17.2749 4.34167C17.0082 4.19167 16.5915 4.25001 16.1415 4.50834L14.1832 5.62501C13.5749 5.97501 12.6499 6.00001 12.0249 5.68334L7.64987 3.49167C7.39987 3.36667 6.91654 3.38334 6.66654 3.51667L3.0582 5.58334C2.79154 5.73334 2.5332 6.18334 2.5332 6.49167V14.6C2.5332 15.125 2.6832 15.5167 2.94987 15.6667C3.21654 15.825 3.6332 15.7583 4.09154 15.5L6.04987 14.3833C6.37487 14.1917 6.79154 14.1 7.19987 14.1Z" fill="#061032"/>
<path d="M7.13379 14.7917C6.79212 14.7917 6.50879 14.5084 6.50879 14.1667V3.33337C6.50879 2.99171 6.79212 2.70837 7.13379 2.70837C7.47546 2.70837 7.75879 2.99171 7.75879 3.33337V14.1667C7.75879 14.5084 7.47546 14.7917 7.13379 14.7917Z" fill="#061032"/>
<path d="M13.1084 17.2917C12.7667 17.2917 12.4834 17.0084 12.4834 16.6667V5.51672C12.4834 5.17506 12.7667 4.89172 13.1084 4.89172C13.4501 4.89172 13.7334 5.17506 13.7334 5.51672V16.6667C13.7334 17.0084 13.4501 17.2917 13.1084 17.2917Z" fill="#061032"/>
</svg>
