<svg width="21" height="20" viewBox="0 0 21 20" fill="none" xmlns="http://www.w3.org/2000/svg">
<path d="M13.0003 18.9583H8.00033C3.47533 18.9583 1.54199 17.025 1.54199 12.5V7.49996C1.54199 2.97496 3.47533 1.04163 8.00033 1.04163H9.66699C10.0087 1.04163 10.292 1.32496 10.292 1.66663C10.292 2.00829 10.0087 2.29163 9.66699 2.29163H8.00033C4.15866 2.29163 2.79199 3.65829 2.79199 7.49996V12.5C2.79199 16.3416 4.15866 17.7083 8.00033 17.7083H13.0003C16.842 17.7083 18.2087 16.3416 18.2087 12.5V10.8333C18.2087 10.4916 18.492 10.2083 18.8337 10.2083C19.1753 10.2083 19.4587 10.4916 19.4587 10.8333V12.5C19.4587 17.025 17.5253 18.9583 13.0003 18.9583Z" fill="#555555"/>
<path d="M7.58311 14.7417C7.07478 14.7417 6.60811 14.5584 6.26645 14.225C5.85811 13.8167 5.68311 13.225 5.77478 12.6L6.13311 10.0917C6.19978 9.60838 6.51645 8.98338 6.85811 8.64172L13.4248 2.07505C15.0831 0.416716 16.7664 0.416716 18.4248 2.07505C19.3331 2.98338 19.7414 3.90838 19.6581 4.83338C19.5831 5.58338 19.1831 6.31672 18.4248 7.06672L11.8581 13.6334C11.5164 13.975 10.8914 14.2917 10.4081 14.3584L7.89978 14.7167C7.79145 14.7417 7.68311 14.7417 7.58311 14.7417ZM14.3081 2.95838L7.74145 9.52505C7.58311 9.68338 7.39978 10.05 7.36645 10.2667L7.00811 12.775C6.97478 13.0167 7.02478 13.2167 7.14978 13.3417C7.27478 13.4667 7.47478 13.5167 7.71645 13.4834L10.2248 13.125C10.4414 13.0917 10.8164 12.9084 10.9664 12.75L17.5331 6.18338C18.0748 5.64172 18.3581 5.15838 18.3998 4.70838C18.4498 4.16672 18.1664 3.59172 17.5331 2.95005C16.1998 1.61672 15.2831 1.99172 14.3081 2.95838Z" fill="#555555"/>
<path d="M17.0413 8.19161C16.983 8.19161 16.9246 8.18327 16.8746 8.16661C14.683 7.54994 12.9413 5.80827 12.3246 3.61661C12.233 3.28327 12.4246 2.94161 12.758 2.84161C13.0913 2.74994 13.433 2.94161 13.5246 3.27494C14.0246 5.04994 15.433 6.45827 17.208 6.95827C17.5413 7.04994 17.733 7.39994 17.6413 7.73327C17.5663 8.01661 17.3163 8.19161 17.0413 8.19161Z" fill="#555555"/>
</svg>
