<svg width="21" height="20" viewBox="0 0 21 20" fill="none" xmlns="http://www.w3.org/2000/svg">
<path d="M13.0003 18.9583H8.00033C3.47533 18.9583 1.54199 17.025 1.54199 12.5V7.49996C1.54199 2.97496 3.47533 1.04163 8.00033 1.04163H13.0003C17.5253 1.04163 19.4587 2.97496 19.4587 7.49996V12.5C19.4587 17.025 17.5253 18.9583 13.0003 18.9583ZM8.00033 2.29163C4.15866 2.29163 2.79199 3.65829 2.79199 7.49996V12.5C2.79199 16.3416 4.15866 17.7083 8.00033 17.7083H13.0003C16.842 17.7083 18.2087 16.3416 18.2087 12.5V7.49996C18.2087 3.65829 16.842 2.29163 13.0003 2.29163H8.00033Z" fill="#555555"/>
<path d="M10.5003 15.7917C10.3003 15.7917 10.1003 15.7417 9.9336 15.65C8.96694 15.125 7.2586 14.5583 6.1836 14.4166L6.02527 14.3917C5.2086 14.2917 4.55859 13.5583 4.55859 12.7167V6.29999C4.55859 5.82499 4.75861 5.36666 5.10028 5.04999C5.45028 4.73332 5.90026 4.575 6.3836 4.61667C7.60026 4.71667 9.36694 5.3 10.4086 5.95L10.4919 6L10.5253 5.975C11.5753 5.31667 13.3419 4.725 14.5669 4.61667C14.5836 4.61667 14.6336 4.61667 14.6502 4.61667C15.0836 4.575 15.5502 4.74166 15.8919 5.04999C16.2419 5.36666 16.4336 5.80832 16.4336 6.29165V12.7C16.4336 13.5333 15.7836 14.2667 14.9586 14.375L14.7836 14.4C13.7169 14.5417 12.0002 15.1083 11.0502 15.6333C10.8919 15.75 10.7003 15.7917 10.5003 15.7917ZM6.24194 5.87498C6.12528 5.87498 6.02525 5.91665 5.95025 5.98332C5.85858 6.06665 5.81694 6.18333 5.81694 6.30833V12.725C5.81694 12.925 6.00028 13.1333 6.19195 13.1583L6.35028 13.1833C7.56695 13.35 9.43361 13.9583 10.5169 14.55C11.5253 13.9667 13.4003 13.3417 14.6253 13.1833L14.8086 13.1583C15.0002 13.1333 15.1836 12.925 15.1836 12.725V6.31665C15.1836 6.18331 15.1336 6.07499 15.0503 5.99166C14.9586 5.90833 14.8419 5.87499 14.7086 5.88332C14.6919 5.88332 14.6419 5.88332 14.6253 5.88332C13.6586 5.96666 12.067 6.49999 11.2003 7.04999L11.1169 7.09998C10.7503 7.32498 10.2336 7.32499 9.88361 7.10832L9.75859 7.03333C8.88359 6.48333 7.29193 5.95832 6.2836 5.87498C6.26693 5.87498 6.25861 5.87498 6.24194 5.87498Z" fill="#555555"/>
<path d="M10.5 15.3417C10.1583 15.3417 9.875 15.0583 9.875 14.7167V6.75C9.875 6.40833 10.1583 6.125 10.5 6.125C10.8417 6.125 11.125 6.40833 11.125 6.75V14.7167C11.125 15.0667 10.8417 15.3417 10.5 15.3417Z" fill="#555555"/>
</svg>
